  <svg viewBox="0 0 37 51" width="250" xmlns="http://www.w3.org/2000/svg"
       xmlns:xlink="http://www.w3.org/1999/xlink">
    <g transform="matrix(1.054651852940741,0,0,1.054651852940741,-10.79140230568213,-2.5626826233796307)"
       fill="#1575d6">
      <g xmlns="http://www.w3.org/2000/svg">
        <path
            d="M30.17891,15.663c0.48419-2.59943-1.74146-4.83356-4.34088-4.39191c-1.58008,0.26343-2.83734,1.58014-3.04968,3.16016   c-0.21869,1.69202,0.65472,3.15735,2.00696,3.84436c-1.19226,9.74976-6.62457,23.17901-13.20056,32.29449h1.96863   c0.875-1.26648,1.72595-2.60901,2.54974-4.00189l9.58563-3.58795v7.58984h1.6015v-7.58984l9.58496,3.58807   c0.82373,1.39282,1.67456,2.73535,2.5495,4.00177h1.96857c-6.57318-9.11212-12.00434-22.53656-13.19867-32.28607   C29.2087,17.76567,29.96907,16.80467,30.17891,15.663z M23.61012,30.07701l2.03546,1.37927l-3.89185,3.63269   C22.4308,33.41611,23.05464,31.73899,23.61012,30.07701z M16.9496,45.11546c1.1839-2.10516,2.30054-4.30951,3.32312-6.56042   l5.06946,3.41907L16.9496,45.11546z M25.69875,40.92667l-4.98907-3.36475c0.00916-0.02081,0.01825-0.04163,0.02734-0.06244   l4.96173-4.63196V40.92667z M25.69875,30.20194l-1.74609-1.18274c0.71417-2.23981,1.30212-4.43384,1.74609-6.53217V30.20194z    M36.04866,45.11552l-8.39179-3.14142l5.06885-3.41925C33.74819,40.80589,34.86483,43.01029,36.04866,45.11552z M32.28878,37.56162   l-4.98853,3.36487v-8.05878l4.96173,4.63263C32.27089,37.52079,32.2798,37.54124,32.28878,37.56162z M31.24513,35.08933   l-3.89166-3.63305l2.0351-1.37958C29.94405,31.73887,30.56801,33.4163,31.24513,35.08933z M27.30025,30.2017v-7.7146   c0.44397,2.09821,1.03174,4.29205,1.74579,6.53174L27.30025,30.2017z"></path>
        <path
            d="M30.51869,9.62315c1.23175,0.95142,2.19165,2.22565,2.48053,3.75476c0.56067,2.92224-0.34833,5.23279-2.5315,6.94879   c-0.86646,0.68811-1.03638,1.67346-0.44171,2.43805c0.60309,0.78149,1.63953,0.84949,2.51447,0.16992   c1.95386-1.5376,3.16864-3.44897,3.69531-5.89551c0.3313-1.53754,0.28027-3.15161-0.10193-4.68915   c-0.03406-0.13593-0.06799-0.27185-0.11047-0.41626c-0.62018-2.06427-1.84344-3.74622-3.57635-5.03748   c-1.05335-0.78156-2.42102-0.34833-2.7099,0.84949C29.54177,8.54429,29.89003,9.13896,30.51869,9.62315z"></path>
        <path
            d="M39.02205,11.4835c1.1723,5.18188-0.15289,9.52283-3.72919,12.98022c-0.22089,0.2124-0.44177,0.46722-0.56073,0.74756   c-0.22937,0.52667-0.18683,1.01941,0.09344,1.44415c0.58618,0.86646,1.84344,0.91742,2.66742,0.27185   c0.05096-0.04254,0.10193-0.08502,0.15289-0.13599c6.06537-5.70001,6.84692-15.07843,1.79242-21.69592   c-0.67957-0.90045-1.35913-1.81793-2.33606-2.42108c-0.5097-0.31433-1.18927-0.3313-1.70746-0.01697c0,0,0,0.00848-0.00848,0.00848   c-1.01941,0.6286-1.05341,1.86884-0.10193,2.76929C37.05129,7.10862,38.4869,9.11344,39.02205,11.4835z"></path>
        <path
            d="M16.86617,12.35002c-0.3822,1.53754-0.43323,3.15161-0.10193,4.68915c0.52667,2.44653,1.74146,4.35791,3.69531,5.89551   c0.87494,0.67957,1.91138,0.61157,2.51447-0.16992c0.59467-0.76459,0.42474-1.74994-0.44171-2.43805   c-2.18317-1.716-3.09216-4.02655-2.53149-6.94879c0.28882-1.52911,1.24878-2.80334,2.48053-3.75476   c0.6286-0.48419,0.97687-1.07886,0.78149-1.87738c-0.28882-1.19781-1.65649-1.63104-2.70984-0.84949   c-1.73297,1.29126-2.95624,2.97321-3.57642,5.03748C16.93416,12.07817,16.90016,12.21409,16.86617,12.35002z"></path>
        <path
            d="M15.50698,26.92729c0.82403,0.64557,2.0813,0.5946,2.66742-0.27185c0.28033-0.42474,0.32281-0.91748,0.09344-1.44415   c-0.11896-0.28033-0.33978-0.53516-0.56067-0.74756c-3.57635-3.4574-4.90155-7.79834-3.72925-12.98022   c0.53522-2.37006,1.97083-4.37488,3.73773-6.0484c0.95142-0.90045,0.91748-2.14069-0.10193-2.76929   c-0.00848,0-0.00848-0.00848-0.00848-0.00848C17.08705,2.343,16.40749,2.35996,15.89778,2.6743   c-0.97693,0.60315-1.65649,1.52063-2.33612,2.42108c-5.05444,6.61749-4.27295,15.99591,1.79242,21.69592   C15.40505,26.84226,15.45601,26.88474,15.50698,26.92729z"></path>
      </g>
    </g>
  </svg>