<svg height="116" viewBox="0 0 370 51" width="250" xmlns="http://www.w3.org/2000/svg"
         xmlns:xlink="http://www.w3.org/1999/xlink">
      <g transform="matrix(1.054651852940741,0,0,1.054651852940741,-10.79140230568213,-2.5626826233796307)"
         fill="#1575d6">
        <g xmlns="http://www.w3.org/2000/svg">
          <path
              d="M30.17891,15.663c0.48419-2.59943-1.74146-4.83356-4.34088-4.39191c-1.58008,0.26343-2.83734,1.58014-3.04968,3.16016   c-0.21869,1.69202,0.65472,3.15735,2.00696,3.84436c-1.19226,9.74976-6.62457,23.17901-13.20056,32.29449h1.96863   c0.875-1.26648,1.72595-2.60901,2.54974-4.00189l9.58563-3.58795v7.58984h1.6015v-7.58984l9.58496,3.58807   c0.82373,1.39282,1.67456,2.73535,2.5495,4.00177h1.96857c-6.57318-9.11212-12.00434-22.53656-13.19867-32.28607   C29.2087,17.76567,29.96907,16.80467,30.17891,15.663z M23.61012,30.07701l2.03546,1.37927l-3.89185,3.63269   C22.4308,33.41611,23.05464,31.73899,23.61012,30.07701z M16.9496,45.11546c1.1839-2.10516,2.30054-4.30951,3.32312-6.56042   l5.06946,3.41907L16.9496,45.11546z M25.69875,40.92667l-4.98907-3.36475c0.00916-0.02081,0.01825-0.04163,0.02734-0.06244   l4.96173-4.63196V40.92667z M25.69875,30.20194l-1.74609-1.18274c0.71417-2.23981,1.30212-4.43384,1.74609-6.53217V30.20194z    M36.04866,45.11552l-8.39179-3.14142l5.06885-3.41925C33.74819,40.80589,34.86483,43.01029,36.04866,45.11552z M32.28878,37.56162   l-4.98853,3.36487v-8.05878l4.96173,4.63263C32.27089,37.52079,32.2798,37.54124,32.28878,37.56162z M31.24513,35.08933   l-3.89166-3.63305l2.0351-1.37958C29.94405,31.73887,30.56801,33.4163,31.24513,35.08933z M27.30025,30.2017v-7.7146   c0.44397,2.09821,1.03174,4.29205,1.74579,6.53174L27.30025,30.2017z"></path>
          <path
              d="M30.51869,9.62315c1.23175,0.95142,2.19165,2.22565,2.48053,3.75476c0.56067,2.92224-0.34833,5.23279-2.5315,6.94879   c-0.86646,0.68811-1.03638,1.67346-0.44171,2.43805c0.60309,0.78149,1.63953,0.84949,2.51447,0.16992   c1.95386-1.5376,3.16864-3.44897,3.69531-5.89551c0.3313-1.53754,0.28027-3.15161-0.10193-4.68915   c-0.03406-0.13593-0.06799-0.27185-0.11047-0.41626c-0.62018-2.06427-1.84344-3.74622-3.57635-5.03748   c-1.05335-0.78156-2.42102-0.34833-2.7099,0.84949C29.54177,8.54429,29.89003,9.13896,30.51869,9.62315z"></path>
          <path
              d="M39.02205,11.4835c1.1723,5.18188-0.15289,9.52283-3.72919,12.98022c-0.22089,0.2124-0.44177,0.46722-0.56073,0.74756   c-0.22937,0.52667-0.18683,1.01941,0.09344,1.44415c0.58618,0.86646,1.84344,0.91742,2.66742,0.27185   c0.05096-0.04254,0.10193-0.08502,0.15289-0.13599c6.06537-5.70001,6.84692-15.07843,1.79242-21.69592   c-0.67957-0.90045-1.35913-1.81793-2.33606-2.42108c-0.5097-0.31433-1.18927-0.3313-1.70746-0.01697c0,0,0,0.00848-0.00848,0.00848   c-1.01941,0.6286-1.05341,1.86884-0.10193,2.76929C37.05129,7.10862,38.4869,9.11344,39.02205,11.4835z"></path>
          <path
              d="M16.86617,12.35002c-0.3822,1.53754-0.43323,3.15161-0.10193,4.68915c0.52667,2.44653,1.74146,4.35791,3.69531,5.89551   c0.87494,0.67957,1.91138,0.61157,2.51447-0.16992c0.59467-0.76459,0.42474-1.74994-0.44171-2.43805   c-2.18317-1.716-3.09216-4.02655-2.53149-6.94879c0.28882-1.52911,1.24878-2.80334,2.48053-3.75476   c0.6286-0.48419,0.97687-1.07886,0.78149-1.87738c-0.28882-1.19781-1.65649-1.63104-2.70984-0.84949   c-1.73297,1.29126-2.95624,2.97321-3.57642,5.03748C16.93416,12.07817,16.90016,12.21409,16.86617,12.35002z"></path>
          <path
              d="M15.50698,26.92729c0.82403,0.64557,2.0813,0.5946,2.66742-0.27185c0.28033-0.42474,0.32281-0.91748,0.09344-1.44415   c-0.11896-0.28033-0.33978-0.53516-0.56067-0.74756c-3.57635-3.4574-4.90155-7.79834-3.72925-12.98022   c0.53522-2.37006,1.97083-4.37488,3.73773-6.0484c0.95142-0.90045,0.91748-2.14069-0.10193-2.76929   c-0.00848,0-0.00848-0.00848-0.00848-0.00848C17.08705,2.343,16.40749,2.35996,15.89778,2.6743   c-0.97693,0.60315-1.65649,1.52063-2.33612,2.42108c-5.05444,6.61749-4.27295,15.99591,1.79242,21.69592   C15.40505,26.84226,15.45601,26.88474,15.50698,26.92729z"></path>
        </g>
      </g>
      <g transform="matrix(1.4015917334193697,0,0,1.4015917334193697,53.452117602135026,7.992041332903152)"
         fill="#111111">
        <path
            d="M10.01 5.888999999999999 l0 2.5781 l-3.3496 0 l0 11.533 l-2.9004 0 l0 -11.533 l-3.3691 0 l0 -2.5781 l9.6191 0 z M21.298390625 14.834 l-0.029297 0.67383 l-7.4414 0 c0.11719 1.6699 1.2305 2.4707 2.5684 2.4707 c1.0059 0 1.7871 -0.46875 2.168 -1.3574 l2.5781 0.38086 c-0.66406 2.0313 -2.4707 3.1934 -4.7266 3.1934 c-3.2422 0 -5.3613 -1.9141 -5.3613 -5.2148 s2.1777 -5.2344 5.2734 -5.2344 c2.8418 0 4.9609 1.5723 4.9707 5.0879 z M16.347690625 11.7383 c-1.2793 0 -2.168 0.5957 -2.4414 1.9336 l4.6094 0 c-0.14648 -1.2793 -1.0156 -1.9336 -2.168 -1.9336 z M23.437521875 20 l0 -15 l2.8418 0 l0 15 l-2.8418 0 z M38.632374999999996 14.834 l-0.029297 0.67383 l-7.4414 0 c0.11719 1.6699 1.2305 2.4707 2.5684 2.4707 c1.0059 0 1.7871 -0.46875 2.168 -1.3574 l2.5781 0.38086 c-0.66406 2.0313 -2.4707 3.1934 -4.7266 3.1934 c-3.2422 0 -5.3613 -1.9141 -5.3613 -5.2148 s2.1777 -5.2344 5.2734 -5.2344 c2.8418 0 4.9609 1.5723 4.9707 5.0879 z M33.681675 11.7383 c-1.2793 0 -2.168 0.5957 -2.4414 1.9336 l4.6094 0 c-0.14648 -1.2793 -1.0156 -1.9336 -2.168 -1.9336 z M45.31250625 20.18555 c-3.1543 0 -5.3809 -2.0996 -5.3809 -5.2148 c0 -3.125 2.2266 -5.2051 5.3809 -5.2051 c2.5391 0 4.4434 1.3184 4.9316 3.6914 l-2.5977 0.2832 c-0.3125 -1.2012 -1.1816 -1.7578 -2.3633 -1.7578 c-1.5137 0 -2.5391 1.1914 -2.5391 2.9883 c0 1.7871 1.0254 2.9883 2.5391 2.9883 c1.1816 0 2.0508 -0.56641 2.3633 -1.7578 l2.5977 0.2832 c-0.48828 2.373 -2.4414 3.7012 -4.9316 3.7012 z M56.923815625 20.19531 c-3.1934 0 -5.498 -1.9434 -5.498 -5.2246 c0 -3.2617 2.2852 -5.2051 5.498 -5.2051 c3.2324 0 5.5078 1.9434 5.5078 5.2051 c0 3.2813 -2.2852 5.2246 -5.5078 5.2246 z M56.894515625 17.959 c1.6309 0 2.7441 -1.1914 2.7441 -2.9883 s-1.1133 -2.9883 -2.7441 -2.9883 c-1.5723 0 -2.6758 1.1914 -2.6758 2.9883 s1.1035 2.9883 2.6758 2.9883 z M76.41640625 9.766 c2.1484 0 3.5352 1.0938 3.5352 3.1543 l0 7.0801 l-2.8125 0 l0 -6.2793 c0 -1.1816 -0.74219 -1.6992 -1.582 -1.6992 c-1.0059 0 -1.8945 0.57617 -1.8945 2.3145 l0 5.6641 l-2.8418 0 l0 -6.25 c0 -1.2012 -0.72266 -1.7285 -1.6113 -1.7285 c-0.97656 0 -1.8848 0.57617 -1.8848 2.4609 l0 5.5176 l-2.8027 0 l0 -10.039 l2.8027 0 l0 1.1816 c0.66406 -0.88867 1.6797 -1.377 2.9102 -1.377 c1.4551 0 2.5488 0.52734 3.0762 1.5039 c0.70313 -1.0059 1.7773 -1.5039 3.1055 -1.5039 z M97.22678125 5.888999999999999 l3.1152 0 l-5.2148 14.111 l-3.2227 0 l-5.1855 -14.111 l3.1055 0 l3.7012 10.693 z M108.740265625 9.961 l2.8125 0 l0 10.039 l-2.666 0 l-0.068359 -1.2109 c-0.70313 0.88867 -1.8164 1.4063 -3.1934 1.4063 c-2.4121 0 -3.7402 -1.2598 -3.7402 -3.4766 l0 -6.7578 l2.8223 0 l0 6.1523 c0 1.3281 0.83008 1.8164 1.8066 1.8164 c1.1621 0 2.2168 -0.58594 2.2266 -2.4316 l0 -5.5371 z M114.4629125 20 l0 -15 l2.8418 0 l0 15 l-2.8418 0 z M126.142565625 9.766 c2.4121 0 3.7402 1.25 3.7402 3.4766 l0 6.7578 l-2.8223 0 l0 -6.1523 c0 -1.3379 -0.83008 -1.8262 -1.7969 -1.8262 c-1.1621 0 -2.2168 0.58594 -2.2363 2.4414 l0 5.5371 l-2.8125 0 l0 -10.039 l2.8125 0 l0 1.1133 c0.70313 -0.83008 1.7871 -1.3086 3.1152 -1.3086 z M142.05034375 14.834 l-0.029297 0.67383 l-7.4414 0 c0.11719 1.6699 1.2305 2.4707 2.5684 2.4707 c1.0059 0 1.7871 -0.46875 2.168 -1.3574 l2.5781 0.38086 c-0.66406 2.0313 -2.4707 3.1934 -4.7266 3.1934 c-3.2422 0 -5.3613 -1.9141 -5.3613 -5.2148 s2.1777 -5.2344 5.2734 -5.2344 c2.8418 0 4.9609 1.5723 4.9707 5.0879 z M137.09964375 11.7383 c-1.2793 0 -2.168 0.5957 -2.4414 1.9336 l4.6094 0 c-0.14648 -1.2793 -1.0156 -1.9336 -2.168 -1.9336 z M146.884775 11.5527 c0.50781 -0.88867 1.8262 -1.709 3.2813 -1.709 l0 2.5098 c-2.1289 0 -3.1445 0.625 -3.1445 2.7539 l0 4.8926 l-2.832 0 l0 -10.039 l2.6953 0 l0 1.5918 z M160.048828125 17.2754 c0 1.2305 0.11719 2.0117 0.24414 2.4512 l0 0.27344 l-2.627 0 l-0.22461 -1.0938 c-0.75195 0.9082 -2.0508 1.2891 -3.2227 1.2891 c-1.582 0 -3.125 -0.70313 -3.125 -2.793 c0 -2.0801 1.5527 -2.7832 3.6523 -3.2422 l1.6504 -0.37109 c0.71289 -0.16602 0.9668 -0.41016 0.9668 -0.82031 c0 -0.98633 -0.89844 -1.2598 -1.6895 -1.2598 c-1.0156 0 -1.7871 0.40039 -1.9629 1.5332 l-2.4902 -0.44922 c0.41992 -2.0801 1.9434 -3.0273 4.6094 -3.0273 c2.0117 0 4.2188 0.5957 4.2188 3.623 l0 3.8867 z M155.097628125 18.291 c1.3379 0 2.4121 -0.88867 2.4121 -2.8809 l-2.3828 0.67383 c-0.78125 0.18555 -1.3477 0.45898 -1.3477 1.1328 c0 0.72266 0.5957 1.0742 1.3184 1.0742 z M168.681625 9.766 c2.6367 0 4.8242 1.9531 4.8242 5.2344 s-2.1875 5.2344 -4.8242 5.2344 c-1.3867 0 -2.5977 -0.55664 -3.1641 -1.543 l-0.068359 1.3086 l-2.666 0 l0 -15 l2.8125 0 l0 6.1816 c0.58594 -0.9082 1.7578 -1.416 3.0859 -1.416 z M168.027325 17.9004 c1.4941 0 2.666 -1.1035 2.666 -2.9004 c0 -1.8066 -1.1719 -2.9102 -2.666 -2.9102 c-1.4844 0 -2.6563 1.1523 -2.6563 2.9102 s1.1621 2.9004 2.6563 2.9004 z M177.060521875 8.457 c-0.88867 0 -1.6309 -0.72266 -1.6309 -1.6211 c0 -0.88867 0.74219 -1.6113 1.6309 -1.6113 c0.86914 0 1.6113 0.72266 1.6113 1.6113 c0 0.89844 -0.74219 1.6211 -1.6113 1.6211 z M175.625021875 20 l0 -10.039 l2.832 0 l0 10.039 l-2.832 0 z M181.367209375 20 l0 -15 l2.8418 0 l0 15 l-2.8418 0 z M188.5546625 8.457 c-0.88867 0 -1.6309 -0.72266 -1.6309 -1.6211 c0 -0.88867 0.74219 -1.6113 1.6309 -1.6113 c0.86914 0 1.6113 0.72266 1.6113 1.6113 c0 0.89844 -0.74219 1.6211 -1.6113 1.6211 z M187.1191625 20 l0 -10.039 l2.832 0 l0 10.039 l-2.832 0 z M196.60155 20 c-1.9531 0 -3.0664 -1.1328 -3.0664 -3.1348 l0 -4.7461 l-1.9727 0 l0 -2.1582 l0.63477 0 c1.0645 0 1.6504 -0.41016 1.6504 -1.9141 l0 -1.3281 l2.5391 0 l0 3.2422 l2.0703 0 l0 2.1582 l-2.0703 0 l0 4.4434 c0 0.89844 0.43945 1.2988 1.1621 1.2988 l0.9082 0 l0 2.1387 l-1.8555 0 z M202.0702875 8.457 c-0.88867 0 -1.6309 -0.72266 -1.6309 -1.6211 c0 -0.88867 0.74219 -1.6113 1.6309 -1.6113 c0.86914 0 1.6113 0.72266 1.6113 1.6113 c0 0.89844 -0.74219 1.6211 -1.6113 1.6211 z M200.6347875 20 l0 -10.039 l2.832 0 l0 10.039 l-2.832 0 z M215.819875 14.834 l-0.029297 0.67383 l-7.4414 0 c0.11719 1.6699 1.2305 2.4707 2.5684 2.4707 c1.0059 0 1.7871 -0.46875 2.168 -1.3574 l2.5781 0.38086 c-0.66406 2.0313 -2.4707 3.1934 -4.7266 3.1934 c-3.2422 0 -5.3613 -1.9141 -5.3613 -5.2148 s2.1777 -5.2344 5.2734 -5.2344 c2.8418 0 4.9609 1.5723 4.9707 5.0879 z M210.869175 11.7383 c-1.2793 0 -2.168 0.5957 -2.4414 1.9336 l4.6094 0 c-0.14648 -1.2793 -1.0156 -1.9336 -2.168 -1.9336 z M221.49410625 20.19531 c-2.2559 0 -4.0039 -0.88867 -4.3652 -2.793 l2.3535 -0.66406 c0.30273 1.0742 1.0645 1.4941 2.0117 1.4941 c0.69336 0 1.4453 -0.21484 1.4258 -1.0059 c-0.0097656 -1.0449 -1.5918 -1.1328 -3.1836 -1.6992 c-1.2012 -0.41992 -2.3535 -1.0645 -2.3535 -2.7539 c0 -2.0605 1.709 -3.0078 3.9355 -3.0078 c1.9531 0 3.584 0.74219 3.9746 2.6563 l-2.1777 0.48828 c-0.30273 -0.9375 -0.9668 -1.2695 -1.7871 -1.2695 c-0.74219 0 -1.377 0.26367 -1.377 0.88867 c0 0.79102 1.1621 0.94727 2.4219 1.2891 c1.5527 0.41992 3.252 1.0938 3.252 3.2422 c0 2.3047 -1.9629 3.1348 -4.1309 3.1348 z"></path>
      </g>
    </svg>